<?xml version="1.0" encoding="UTF-8"?>
<svg id="Layer_1" xmlns="http://www.w3.org/2000/svg" version="1.1" viewBox="0 0 702.8 212.5">
  <!-- Generator: Adobe Illustrator 29.0.1, SVG Export Plug-In . SVG Version: 2.1.0 Build 192)  -->
  <defs>
    <style>
      .st0 {
        fill: #444;
      }

      .st1 {
        fill: #797979;
        font-size: 38px;
        letter-spacing: 0em;
      }

      .st1, .st2, .st3 {
        font-family: Patrician, Patrician™;
      }

      .st4 {
        fill: #363636;
      }

      .st5 {
        fill: #171717;
      }

      .st6 {
        fill: #a5a5a5;
      }

      .st2 {
        letter-spacing: 0em;
      }

      .st2, .st3 {
        fill: #221f20;
        font-size: 37px;
      }

      .st3 {
        letter-spacing: 0em;
      }

      .st7 {
        fill: #636363;
      }

      .st8 {
        fill: #717171;
      }

      .st9 {
        fill: #3d3d3d;
      }

      .st10 {
        fill: #fff;
      }

      .st11 {
        fill: #f9f9f9;
      }

      .st12 {
        fill: #666;
      }

      .st13 {
        fill: #fefefe;
      }

      .st14 {
        fill: #fcfcfc;
      }

      .st15 {
        fill: #404040;
      }

      .st16 {
        fill: #161616;
      }
    </style>
  </defs>
  <text class="st2" transform="translate(502.8 102.9)"><tspan x="0" y="0">LEPINAY</tspan></text>
  <g>
    <path class="st4" d="M94,209.7c.4-.3,1-.5,1.8-.6.8-.6,1.7-.8,2.7-.8,32,.5,57.5-6.5,80.5-29.8C239.6,117.1,200.7,13.5,115.1,7.1c-.5-1-1.3-1.3-2.3-1-3.9,1-7.8,1.5-11.8.2l-2.3,1.2C49,11.7,8.3,51.7,6.6,102.2l-1.3,2.8c1.8.5,1.8,4.9,0,5.4.5.5,1.1,1,1.2,1.7.4,1.9.9,9.7.9,12l-.9,1.9c0,.8-.1,1.2-.6,1.2C-3.2,77.2,23.3,28.2,71.3,10.9c79.2-28.6,156.9,42.3,135.8,123.5-12.8,49.4-62.3,82.6-113.1,75.3Z"/>
    <path class="st4" d="M95.8,209.1c-.3.8-1.1.6-1.8.6-4.6.2-10.5-1.5-15-2.7C41.6,196.7,12.8,165.1,5.8,127.1l.6-1.2,1.6,2.3c6.1,31.2,28.1,57.6,56.7,71.1,9.9,4.7,18.1,6.4,28.6,8.5s1.8.6,2.4,1.3Z"/>
    <g>
      <path class="st10" d="M5.2,105c1.6-1.2,2-3,1.3-5.3C11.9,51.4,49,11.6,97.8,7.7c2-1.8,4.6-1.9,8-.3,2,.2,3.8.2,5.5-1.1,1.7-.5,4.2-.7,4.7,1.3,35.8,5.1,64.4,22,81.2,55.1,30.2,59.3-6.3,130.8-71.1,143.8-61.2,12.3-111.7-32.5-119.6-91.6.6-2.5.4-2.9-1.3-4.6,0-2.1,0-3.2,0-5.4Z"/>
      <g>
        <path class="st10" d="M95.8,209.1c-44-4.6-81.9-39.5-89.3-83.2-.9-5.5-1.1-10-1.2-15.6,4.5,0,2.2,4,2.4,5.7,8.7,55.2,53.9,98.6,111.7,90.5,71.6-10.1,110.8-89.3,72.2-151.4-16.9-27.1-39.9-39.2-70.3-45.3-.9-.2-5.6-1-5.9-1.1-1.3-.8-.3-3.1-2.5-2.4s-.7,2.8-6.7,2.4-5.3-2.7-6-2.4.2,1.6-1.8,2.5-6.8.5-8.2.8C42.7,19.7,15.1,52.2,7.7,99.3s2.1,5.6-2.4,5.7C8.1,3.3,141.8-31.5,194.3,54.2c44.7,72.8-14,163.7-98.6,154.9Z"/>
        <path class="st7" d="M107.2,127.7c1,1,.8,2.8-.7,5.4h14.2s.9,1.2.9,1.2l1.2,1.2h-18.5c0,0-4.3,12.6-4.3,12.6-.4,0-.8,0-1.2,0l7.2-20.3c.4,0,.8,0,1.2,0Z"/>
        <path class="st12" d="M99.4,149.3c-.6,3.3-4.4,9.4-4.8,12.3s2.9-.4,2.4,2.1h-6c-.4-2.1,1.6-.6,2.7-1.8s3.6-10.7,4.5-13.2c.3,0,.9.6,1.2.6Z"/>
        <path class="st8" d="M106.6,147.5c-.2-1-.7-6.7,1.2-6-.3,1.4.7,6.8-.6,7.2,0-.4-.6-1-.6-1.2Z"/>
        <path class="st10" d="M120.4,52.3c5.2.5,7.5,2.7,8.7,7.7,1.5,6.3,2,30.2-2.4,34.7s-3.1-5.9-5.7-7.2c-1.2,3.4-2.3,6.8-3.6,10.2l-.7.7c-3-.3-5.9-.5-8.9-.7,0-.3-1.2-.3-1.2-2.7,0-12-1.4-29.5,0-40.8s0-1.7,1.2-2.1c4.2-.7,8.4-.6,12.6,0Z"/>
        <path class="st13" d="M121.6,134.3h-16.8s2.4-6.6,2.4-6.6c.6,0,1.2,0,1.8,0-.4-1.1-1.8-.5-1.2-2.4l-.5-.5c2.2-4.7,4.4-9.3,6.5-13.8,2.8,6.2,5.4,14.2,7.7,20.7s1.3,2,0,2.6Z"/>
        <path class="st7" d="M113.8,111l-6,14.4c-1-1.4,0,.7-1.2.6,0-.8,0-1.6,0-2.4,1.6,1.1.9.6,1.5-.6,1.8-4.2,3.5-8.9,5.1-13.2.2.4.4.8.6,1.2Z"/>
        <path class="st0" d="M117.4,97.8c-.2.5-.3,1.1-.6,1.8.1-2.5-6.5-.6-9-1.2,0-.2,0-.5,0-.6h9.6Z"/>
        <g>
          <path class="st5" d="M98.2,148.7c-11.2.1-22.4-.1-33.6,0-.2-1.1,2.4-.6,2.4-1.5v-73.9c-.9,0-2,.4-1.8-.6h19.8c.2,1.1-2.4.6-2.4,1.5v73c0,1.4,14.3.9,16.2.9.5-1,1-1.1,1.2,0,2.2,0,4.6.4,6.6-.6.8-.8,1,.3.6,1.2-2.5-.6-5.8.6-7.8.6-1.2,1.1-1.5,1-1.2-.6Z"/>
          <g>
            <path class="st16" d="M106,127.7c-5.6.2-11.2-.1-16.8,0,.6-1.3,2.7-1.1,2.4-3.3l-.3-71.5-2.1-1.8h36.3c3.2,0,9.7,3.1,12.3,5.1,16.7,12.9,9,40.3-12,42.2l22.6,62.7,2.5,1.9h-20.4l1.8-.6-9.6-26.9c-1.3-.2-1.7-.6-1.2-1.2-2.9-6.8-5.5-13.9-7.9-21.1v-2.2c-.5.2-.7-.2-.4-1.2-.6-3.6.8-7.9,3.6-10.2-1.3-1-1.1-1.6.6-1.8-.2-1.1-.3-2.2,0-3.3,2.6-11.9,6.1-7.9,7.9,0,4.9-7.6,4.4-22.4,3.2-31.5s-1.9-8.8-7.3-9.3l-.7-1.3c-4.2-.6-8.4-.7-12.6,0-.7,15.2-.7,30.4,0,45.5.6.2.5.4,0,.6.7,4,.8,8.1,0,12.5.3,4.5-.1,8.7-1.2,12.7.9.6,1.3,1.2,1.2,1.8,3.3,1.1,1.5,5.5-.6,2.4-.5.9-.7,1.1-1.2,0Z"/>
            <path class="st16" d="M135.6,160.6c-.7-.2-1.8-2.4-2.2-3.2-6.7-14.3-10.3-31.9-17.1-46.3-.8-4.1,2.1-8.2,3.2-12.1s-.9-4.5,1.8-4.2,2.2,5.6,2.7,6.8,2.5.2,1.2,4.1l20.1,53.7c.5.4-.6,1.2-.7,1.2-2,0-7.6.4-9,0Z"/>
            <path class="st16" d="M145.5,70.9c.3.5-1.1,2.1-1.2,3.2-.4,4.6,0,7-2.7,11.6s-7.6,7.7-11.6,9c1.2-5,3-8.6,2.2-13.9s-1.8-4.1-1.7-6.1c.2-5.6,3-6.8,1-14.7s-3-3.1-1.5-4.7,8.3,4.3,9.2,5.4c2.4,2.8,3,6.3,4.6,9.2s1.7.9,1.7,1Z"/>
            <path class="st14" d="M107.8,98.4c1.4-.2,7.7-.8,8.8-.2s.3.9.2,1.4c-1.3,3.4-2.3,6.8-3.6,10.2-.4,2.2-4.4,13.9-5.3,14.5s-1.2.2-1.3-.8c-.3-8.7,0-16.9,1.2-25.1Z"/>
            <path class="st6" d="M120.4,52.3c-1.8-.2-11.4-.4-12.6,0,3.7-1,8.9-1,12.6,0Z"/>
          </g>
        </g>
      </g>
    </g>
  </g>
  <path class="st15" d="M275,2.7v207.6c0,0-1.2,0-1.2,0V2.7c0,0,.9,0,1.2,0Z"/>
  <path class="st11" d="M648,114c-4.9-1.5-12.2,0-17.4-.6-.1.7.7.8,1.2,1.2l-2.1-1.2c5.5-.8,13-1.5,18.3.6Z"/>
  <path class="st9" d="M547.4,66c.2,1.3-.4,1.9-1.2,2.7s-5.5,4.7-5.4,3.6l4.2-5.7c.9-.4,1.4-.5,2.4-.6Z"/>
  <text class="st3" transform="translate(338.3 102.8)"><tspan x="0" y="0">PIERRE </tspan></text>
  <text class="st1" transform="translate(329.6 140.6)"><tspan x="0" y="0">ARCHITECTURE</tspan></text>
</svg>